<svg width="18" height="18" viewBox="0 0 18 18" fill="none" xmlns="http://www.w3.org/2000/svg">
<path d="M6.72719 0H1.27268C0.570886 0 0 0.588725 0 1.31244V4.68742C0 5.41127 0.570886 6 1.27268 6H6.72719C7.42911 6 8 5.41127 8 4.68742V1.31244C8 0.588725 7.42911 0 6.72719 0Z" fill="#676765"/>
<path d="M6.72719 8H1.27268C0.570886 8 0 8.56069 0 9.25008V16.75C0 17.4393 0.570886 18 1.27268 18H6.72719C7.42911 18 8 17.4393 8 16.75V9.25008C8 8.56069 7.42911 8 6.72719 8Z" fill="#676765"/>
<path d="M16.7273 12H11.2728C10.5709 12 10 12.5887 10 13.3126V16.6876C10 17.4113 10.5709 18 11.2728 18H16.7273C17.4291 18 18 17.4113 18 16.6876V13.3126C18 12.5887 17.4291 12 16.7273 12Z" fill="#676765"/>
<path d="M16.7273 0H11.2728C10.5709 0 10 0.560693 10 1.24995V8.74992C10 9.43931 10.5709 10 11.2728 10H16.7273C17.4291 10 18 9.43931 18 8.74992V1.24995C18 0.560693 17.4291 0 16.7273 0V0Z" fill="#676765"/>
</svg>
