<svg width="34" height="30" viewBox="0 0 34 30" fill="none" xmlns="http://www.w3.org/2000/svg">
<path d="M0 29.0645L17 0L34 29.0645H17H0Z" fill="#E32616"/>
<path d="M18.5167 20.5774H15.432L14.995 8.70569H18.9537L18.5167 20.5774ZM16.9743 22.6082C17.5998 22.6082 18.1011 22.7924 18.4781 23.1608C18.8637 23.5293 19.0565 24.0005 19.0565 24.5746C19.0565 25.1402 18.8637 25.6071 18.4781 25.9756C18.1011 26.344 17.5998 26.5283 16.9743 26.5283C16.3574 26.5283 15.8561 26.344 15.4706 25.9756C15.0935 25.6071 14.905 25.1402 14.905 24.5746C14.905 24.0091 15.0935 23.5421 15.4706 23.1737C15.8561 22.7967 16.3574 22.6082 16.9743 22.6082Z" fill="white"/>
</svg>
