<svg width="18" height="18" viewBox="0 0 18 18" fill="none" xmlns="http://www.w3.org/2000/svg">
<g clip-path="url(#clip0)">
<path d="M16.9766 11.774C15.4335 10.8004 13.6667 10.2662 11.8408 10.1663C12.2629 10.3639 12.6808 10.5726 13.077 10.8226C14.0317 11.4241 14.625 12.5134 14.625 13.6647V16.8749H18V13.6647C18 12.8968 17.6078 12.1722 16.9766 11.774Z" fill="#676765"/>
<path d="M12.4766 11.774C9.05659 9.61634 4.44288 9.61634 1.02392 11.774C0.392221 12.1717 0 12.8963 0 13.6648V16.875H13.5V13.6648C13.5 12.8963 13.1078 12.1717 12.4766 11.774Z" fill="#676765"/>
<path d="M10.1185 8.81368C10.4822 8.92376 10.8575 9.00005 11.2501 9.00005C13.421 9.00005 15.1876 7.23345 15.1876 5.06254C15.1876 2.89164 13.421 1.125 11.2501 1.125C10.8575 1.125 10.4822 1.20129 10.1185 1.31137C11.1503 2.23875 11.8125 3.56907 11.8125 5.06251C11.8125 6.55594 11.1504 7.88626 10.1185 8.81368Z" fill="#676765"/>
<path d="M9.53431 2.27827C11.072 3.81597 11.072 6.30903 9.53431 7.84673C7.9966 9.38444 5.50355 9.38444 3.96584 7.84673C2.42813 6.30903 2.42813 3.81597 3.96584 2.27827C5.50355 0.74056 7.9966 0.740595 9.53431 2.27827Z" fill="#676765"/>
</g>
<defs>
<clipPath id="clip0">
<rect width="18" height="18" fill="white"/>
</clipPath>
</defs>
</svg>
