<svg width="18" height="18" viewBox="0 0 18 18" fill="none" xmlns="http://www.w3.org/2000/svg">
<g clip-path="url(#clip0)">
<path d="M9.53181 7.36354C8.85681 5.45716 7.04455 4.09082 4.90909 4.09082C2.19682 4.09082 0 6.28764 0 8.99992C0 11.7122 2.19682 13.909 4.90909 13.909C7.04455 13.909 8.85681 12.5426 9.53181 10.6363H13.0909V13.909H16.3636V10.6363H18V7.36354H9.53181ZM4.90909 10.6363C4.00502 10.6363 3.27272 9.90399 3.27272 8.99988C3.27272 8.09576 4.00502 7.36354 4.90909 7.36354C5.81317 7.36354 6.54547 8.0958 6.54547 8.99992C6.54547 9.90403 5.81317 10.6363 4.90909 10.6363Z" fill="#676765"/>
</g>
<defs>
<clipPath id="clip0">
<rect width="18" height="18" fill="white"/>
</clipPath>
</defs>
</svg>
