<svg width="24" height="24" viewBox="0 0 24 24" fill="none" xmlns="http://www.w3.org/2000/svg">
<path d="M12 0C5.38317 0 0 5.38317 0 12C0 18.6168 5.38317 24 12 24C18.6168 24 24 18.6168 24 12C24 5.38317 18.6168 0 12 0ZM11.2969 4.03125C11.2969 3.64294 11.6117 3.32812 12 3.32812C12.3883 3.32812 12.7031 3.64294 12.7031 4.03125V9.65625C12.7031 10.0446 12.3883 10.3594 12 10.3594C11.6117 10.3594 11.2969 10.0446 11.2969 9.65625V4.03125ZM12 19.7344C7.73527 19.7344 4.26562 16.2647 4.26562 12C4.26562 8.92762 6.087 6.14597 8.90583 4.91348C9.26161 4.75786 9.67617 4.92023 9.83175 5.27602C9.98733 5.6318 9.825 6.04636 9.46922 6.20194C7.16241 7.21059 5.67188 9.48642 5.67188 12C5.67188 15.4893 8.51067 18.3281 12 18.3281C15.4893 18.3281 18.3281 15.4893 18.3281 12C18.3281 9.48642 16.8376 7.21059 14.5308 6.20198C14.175 6.04641 14.0127 5.63184 14.1683 5.27606C14.3238 4.92023 14.7384 4.75781 15.0942 4.91353C17.913 6.14597 19.7344 8.92762 19.7344 12C19.7344 16.2647 16.2647 19.7344 12 19.7344Z" fill="#01C579"/>
</svg>
