<svg width="20" height="20" viewBox="0 0 20 20" fill="none" xmlns="http://www.w3.org/2000/svg">
<path d="M14.6771 12.9102C15.6612 11.5662 16.2499 9.91535 16.2499 8.12572C16.2499 3.64575 12.6049 0.000732422 8.12494 0.000732422C3.64498 0.000732422 0 3.64575 0 8.12572C0 12.6057 3.64502 16.2507 8.12498 16.2507C9.91462 16.2507 11.5656 15.6619 12.9096 14.6778L18.2324 20.0006L20 18.2331C20 18.233 14.6771 12.9102 14.6771 12.9102ZM8.12498 13.7507C5.02318 13.7507 2.50001 11.2275 2.50001 8.12572C2.50001 5.02391 5.02318 2.50074 8.12498 2.50074C11.2268 2.50074 13.75 5.02391 13.75 8.12572C13.75 11.2275 11.2267 13.7507 8.12498 13.7507Z" fill="#C1C1C1"/>
</svg>
