<svg width="24" height="24" viewBox="0 0 24 24" fill="none" xmlns="http://www.w3.org/2000/svg">
<path d="M23.2736 9.61743L21.5884 9.32688C21.385 8.54237 21.0654 7.78693 20.6586 7.08959L21.6465 5.69492C21.908 5.34625 21.8789 4.8523 21.5593 4.56174L19.4092 2.41162C19.1186 2.09201 18.6247 2.06295 18.276 2.32446L16.8814 3.31235C16.184 2.93462 15.4286 2.61501 14.6731 2.41162L14.3826 0.726392C14.3245 0.290557 13.9467 0 13.5109 0H10.4891C10.0533 0 9.67554 0.290557 9.61743 0.726392L9.32688 2.41162C8.54237 2.61501 7.78693 2.93462 7.08959 3.3414L5.69492 2.35351C5.34625 2.09201 4.8523 2.12107 4.56174 2.44068L2.41162 4.5908C2.09201 4.88136 2.06295 5.3753 2.32446 5.72397L3.31235 7.11864C2.93462 7.81598 2.61501 8.57143 2.41162 9.32688L0.726392 9.61743C0.290557 9.67554 0 10.0533 0 10.4891V13.5109C0 13.9467 0.290557 14.3245 0.726392 14.3826L2.41162 14.6731C2.61501 15.4576 2.93462 16.2131 3.3414 16.9104L2.35351 18.3051C2.09201 18.6538 2.12107 19.1477 2.44068 19.4383L4.5908 21.5884C4.88136 21.908 5.3753 21.937 5.72397 21.6755L7.11864 20.6877C7.81598 21.0654 8.57143 21.385 9.32688 21.5884L9.61743 23.2736C9.67554 23.7094 10.0533 24 10.4891 24H13.5109C13.9467 24 14.3245 23.7094 14.3826 23.2736L14.6731 21.5884C15.4576 21.385 16.2131 21.0654 16.9104 20.6586L18.3051 21.6465C18.6538 21.908 19.1477 21.8789 19.4383 21.5593L21.5884 19.4092C21.908 19.1186 21.937 18.6247 21.6755 18.276L20.6877 16.8814C21.0654 16.184 21.385 15.4286 21.5884 14.6731L23.2736 14.3826C23.7094 14.3245 24 13.9467 24 13.5109V10.4891C24 10.0533 23.7094 9.67554 23.2736 9.61743ZM12 16.7942C9.35593 16.7942 7.20581 14.6441 7.20581 12C7.20581 9.35593 9.35593 7.20581 12 7.20581C14.6441 7.20581 16.7942 9.35593 16.7942 12C16.7942 14.6441 14.6441 16.7942 12 16.7942Z" fill="#76757A"/>
</svg>
