<svg width="24" height="24" viewBox="0 0 24 24" fill="none" xmlns="http://www.w3.org/2000/svg">
<g clip-path="url(#clip0)">
<path d="M19.6323 6.5293C19.6025 6.5293 19.5727 6.5293 19.5429 6.5293H4.45715C3.95032 6.5293 3.56274 6.91687 3.56274 7.42371C3.56274 7.45352 3.56274 7.48333 3.56274 7.54296L5.05343 20.5715C5.26212 22.5392 6.93169 24.0001 8.89939 24.0001H15.3093C17.3068 24.0001 18.9764 22.4796 19.1553 20.4821L20.4373 7.51315C20.4671 7.03613 20.1093 6.58892 19.6323 6.5293Z" fill="#76757A"/>
<path d="M15.9652 2.86211V2.08696C15.9652 0.924224 15.041 0 13.8783 0H10.1218C8.95902 0 8.0348 0.924224 8.0348 2.08696V2.86211H1.38635V4.65093H22.6137V2.86211H15.9652ZM14.1764 2.86211H9.82362V2.08696C9.82362 1.90807 9.94287 1.78882 10.1218 1.78882H13.8783C14.0572 1.78882 14.1764 1.90807 14.1764 2.08696V2.86211Z" fill="#76757A"/>
</g>
<defs>
<clipPath id="clip0">
<rect width="24" height="24" fill="white"/>
</clipPath>
</defs>
</svg>
