<svg width="18" height="18" viewBox="0 0 18 18" fill="none" xmlns="http://www.w3.org/2000/svg">
<g clip-path="url(#clip0)">
<path d="M14.9051 12.5928C13.6057 11.2734 11.8831 10.5469 10.0547 10.5469H7.94531C6.11691 10.5469 4.39432 11.2734 3.09495 12.5928C1.80193 13.9057 1.61719 14.1692 1.08984 16.1869C1.08984 16.4782 1.08984 16.7143 1.61719 16.7143H16.3125C16.9102 16.7143 16.9102 16.4782 16.9102 16.1869C16.3125 14.0625 16.1981 13.9057 14.9051 12.5928Z" fill="#676765"/>
<path d="M15.7871 11.6859C11.7337 9.43803 6.26564 9.43803 2.21353 11.6859C1.46485 12.1002 1 12.8551 1 13.6557V17H17V13.6557C17 12.8551 16.5351 12.1002 15.7871 11.6859Z" fill="#676765"/>
<path d="M12 1.31802C13.7574 3.07539 13.7574 5.92459 12 7.68197C10.2426 9.43934 7.39343 9.43934 5.63606 7.68197C3.87869 5.92459 3.87869 3.07539 5.63606 1.31802C7.39343 -0.439359 10.2426 -0.439319 12 1.31802Z" fill="#676765"/>
</g>
<defs>
<clipPath id="clip0">
<rect width="18" height="18" fill="white"/>
</clipPath>
</defs>
</svg>
