<svg width="18" height="18" viewBox="0 0 18 18" fill="none" xmlns="http://www.w3.org/2000/svg">
<path d="M9 0C6.5187 0 4.5 2.0187 4.5 4.5C4.5 6.9813 6.5187 9 9 9C11.4813 9 13.5 6.9813 13.5 4.5C13.5 2.0187 11.4813 0 9 0Z" fill="#676765"/>
<path d="M14.9051 12.5928C13.6057 11.2734 11.8831 10.5469 10.0547 10.5469H7.94531C6.11691 10.5469 4.39432 11.2734 3.09495 12.5928C1.80193 13.9057 1.61719 14.1692 1.08984 16.1869C1.08984 16.4782 1.08984 16.7143 1.61719 16.7143H16.3125C16.9102 16.7143 16.9102 16.4782 16.9102 16.1869C16.3125 14.0625 16.1981 13.9057 14.9051 12.5928Z" fill="#676765"/>
</svg>
